<svg width="140" height="140" viewBox="0 0 140 140" fill="none" xmlns="http://www.w3.org/2000/svg">
<path d="M112 5.7312C104.256 5.7312 96.108 9.01245 90.1143 12.1406C87.2049 11.6812 81.6705 11.3203 75.7424 12.6765C72.5268 13.4093 69.3002 14.6671 66.7299 16.9531C64.1705 19.239 62.4205 22.6953 62.4205 26.9062V29.6187C61.9939 29.5859 61.4033 29.3562 60.9986 29.3562C56.7549 29.3562 50.7283 29.6296 45.4127 32.4187C40.0971 35.1968 35.7877 40.9281 35.7877 50.039V51.8875C34.8908 51.8984 33.9393 51.7671 33.0861 51.975C29.2908 52.9046 24.6424 54.4359 20.8689 58.0125C17.1064 61.6 14.4596 67.2218 14.4596 75.2937V78.1375C14.3721 78.2359 14.2955 78.2031 14.2189 78.3234C11.0799 83.3328 5.73145 96.0421 5.73145 109.277C5.73145 117.72 7.6127 123.955 11.0252 128.155C14.4377 132.366 19.3596 134.269 24.3799 134.269C34.6283 134.269 44.9861 129.303 55.9893 121.286C66.9814 113.269 78.6955 102.102 91.6018 89.1187C116.856 63.7328 134.269 43.0062 134.269 22.4C134.269 16.1875 130.856 11.6156 126.471 9.09995C122.074 6.57339 116.78 5.7312 112 5.7312ZM112 11.0687C116.113 11.0687 120.619 11.9109 123.813 13.7375C126.996 15.5531 128.931 17.9812 128.931 22.4C128.931 39.8781 112.886 60.1562 87.8064 85.3562C74.9658 98.2734 63.383 109.277 52.8393 116.966C42.2955 124.655 32.8674 128.931 24.3799 128.931C20.6283 128.931 17.5549 127.717 15.1814 124.786C12.7971 121.866 11.0689 116.922 11.0689 109.277C11.0689 98.2078 15.7502 86.7781 18.2439 82.3703C18.9002 82.4468 19.6768 82.5671 20.7596 82.775C23.3955 83.2671 26.983 84.0437 30.7127 84.7C34.4533 85.3562 38.3252 85.914 41.7377 85.9687C45.1502 86.0234 48.3549 85.925 50.5643 83.3656C51.6908 82.0531 51.658 79.8437 50.9799 78.575C50.3018 77.3062 49.3174 76.4421 48.1471 75.589C45.8064 73.8828 42.558 72.3953 38.8283 71.2687C33.1627 69.5625 26.3596 68.6437 20.5846 70.5359C21.3283 66.7187 22.608 63.7437 24.5549 61.8953C27.2674 59.314 30.9314 58.0015 34.3549 57.1703C35.5361 56.8859 38.6643 57.2031 42.3283 58.1765C45.9924 59.139 50.2908 60.5828 54.5455 61.9062C58.7893 63.2187 62.9893 64.4109 66.7408 64.8265C68.6111 65.0343 70.394 65.0671 72.0893 64.6953C73.7736 64.3234 75.458 63.4812 76.5955 61.9937C77.7658 60.4734 77.8533 58.275 77.208 56.6781C76.5627 55.0812 75.458 53.8125 74.0799 52.5875C71.3455 50.1593 67.4299 47.9828 63.0111 46.3203C58.6033 44.6578 53.7033 43.5531 49.0221 43.575C46.7252 43.5968 44.4611 43.914 42.3502 44.614C43.4768 41.1031 45.2377 38.5437 47.8955 37.1437C51.8002 35.0984 57.0393 34.6937 60.9986 34.6937C62.4205 34.6937 65.5705 35.3609 69.1033 36.3234C72.6361 37.2968 76.6611 38.5437 80.5002 39.5718C84.3283 40.6 87.9049 41.4421 90.9565 41.5187C92.4768 41.5515 93.9096 41.4531 95.3315 40.6984C96.7533 39.9437 97.8799 38.1062 97.8799 36.4C97.8799 33.25 95.9986 30.6359 93.5815 28.7328C91.1533 26.8187 88.0689 25.4187 84.6893 24.4234C79.3846 22.8593 73.6096 22.7171 68.3815 23.7125C68.808 22.6296 69.4314 21.7109 70.2955 20.9343C71.8814 19.5234 74.2768 18.4953 76.9346 17.8828C82.2502 16.6578 88.6814 17.1828 90.0815 17.4562L91.0002 17.6312L91.8424 17.1937C97.4096 14.2296 105.602 11.0687 112 11.0687ZM74.0143 28.1968C77.044 28.2406 80.2924 28.7 83.1799 29.5421C86.0674 30.3953 88.6158 31.6312 90.2674 32.9328C91.7439 34.0921 92.1814 35.1093 92.3018 36.039C92.0283 36.1046 91.8096 36.1921 91.0877 36.1703C88.9986 36.1156 85.5752 35.4046 81.8783 34.4093C78.1814 33.414 74.1783 32.1781 70.5252 31.1718C68.2174 30.5375 66.4455 30.3515 64.5205 30.0234L66.1064 29.3781C68.1518 28.5468 70.9736 28.1531 74.0143 28.1968ZM49.0549 48.9234C52.8393 48.9015 57.2143 49.8531 61.1408 51.3187C65.0674 52.7953 68.5455 54.8187 70.5252 56.5796C71.5205 57.4656 72.0893 58.2968 72.2424 58.6687C72.2971 58.789 72.308 58.7562 72.3189 58.7671C72.1002 59.0515 71.7611 59.2921 70.9518 59.4671C70.1096 59.6531 68.8518 59.6859 67.3315 59.5109C64.2908 59.1828 60.2877 58.0781 56.1205 56.7875C51.9533 55.5078 47.6221 54.0421 43.6846 53.0031C42.4049 52.664 41.2564 52.4671 40.0752 52.2375L40.3924 51.8875C42.2627 49.9187 45.2814 48.9453 49.0549 48.9234ZM27.0814 74.9546C30.3955 74.8562 34.0158 75.4031 37.2752 76.3875C40.5455 77.3718 43.4111 78.7609 45.008 79.9203C45.1174 79.9968 45.0846 80.0078 45.183 80.0843C44.483 80.314 43.8814 80.6531 41.8252 80.6312C38.9486 80.5875 35.2518 80.0734 31.6424 79.439C28.0439 78.7937 24.5002 78.039 21.7439 77.525C20.8033 77.339 20.0814 77.2406 19.3158 77.1312C21.2955 75.775 24.008 75.0531 27.0814 74.9546Z" fill="#1FB437"/>
</svg>
