<svg  viewBox="0 0 20 25" fill="none" xmlns="http://www.w3.org/2000/svg">
<g clip-path="url(#clip0_964_17688)">
<path d="M10.0998 14.65C12.747 14.65 14.8998 12.4972 14.8998 9.85001C14.8998 7.20281 12.747 5.05001 10.0998 5.05001C7.4526 5.05001 5.2998 7.20281 5.2998 9.85001C5.2998 12.4972 7.4526 14.65 10.0998 14.65ZM10.0998 7.45001C11.4234 7.45001 12.4998 8.52641 12.4998 9.85001C12.4998 11.1736 11.4234 12.25 10.0998 12.25C8.7762 12.25 7.6998 11.1736 7.6998 9.85001C7.6998 8.52641 8.7762 7.45001 10.0998 7.45001Z" fill="#3AEE57"/>
<path d="M9.40411 24.0268C9.6072 24.1718 9.85054 24.2498 10.1001 24.2498C10.3497 24.2498 10.593 24.1718 10.7961 24.0268C11.1609 23.7688 19.7349 17.578 19.7001 9.85C19.7001 4.5568 15.3933 0.25 10.1001 0.25C4.80691 0.25 0.500106 4.5568 0.500106 9.844C0.465306 17.578 9.03931 23.7688 9.40411 24.0268ZM10.1001 2.65C14.0709 2.65 17.3001 5.8792 17.3001 9.856C17.3253 15.1816 12.0345 19.9636 10.1001 21.532C8.1669 19.9624 2.87491 15.1792 2.90011 9.85C2.90011 5.8792 6.1293 2.65 10.1001 2.65Z" fill="#3AEE57"/>
</g>
<defs>
<clipPath id="clip0_964_17688">
<rect width="19.2002" height="24" fill="white" transform="translate(0.5 0.25)"/>
</clipPath>
</defs>
</svg>
