<svg  viewBox="0 0 25 25" fill="none" xmlns="http://www.w3.org/2000/svg">
<g clip-path="url(#clip0_964_17684)">
<path d="M19.3478 12.9767C19.2365 12.8652 19.1043 12.7767 18.9587 12.7163C18.8131 12.656 18.657 12.6249 18.4995 12.6249C18.3419 12.6249 18.1858 12.656 18.0402 12.7163C17.8946 12.7767 17.7624 12.8652 17.6511 12.9767L15.7383 14.8895C14.8515 14.6255 13.1967 14.0255 12.1479 12.9767C11.0991 11.9279 10.4991 10.2731 10.2351 9.38635L12.1479 7.47357C12.2594 7.36223 12.3479 7.22998 12.4083 7.08441C12.4687 6.93883 12.4998 6.78278 12.4998 6.62518C12.4998 6.46758 12.4687 6.31153 12.4083 6.16595C12.3479 6.02038 12.2594 5.88813 12.1479 5.77679L7.34796 0.976838C7.23662 0.865304 7.10438 0.776819 6.9588 0.716447C6.81322 0.656075 6.65717 0.625 6.49957 0.625C6.34197 0.625 6.18592 0.656075 6.04034 0.716447C5.89477 0.776819 5.76252 0.865304 5.65118 0.976838L2.39681 4.23121C1.94082 4.6872 1.68402 5.31359 1.69362 5.95319C1.72122 7.66197 2.17361 13.5971 6.85117 18.2747C11.5287 22.9522 17.4639 23.4034 19.1738 23.4322H19.2074C19.841 23.4322 20.4398 23.1826 20.8934 22.729L24.1478 19.4747C24.2593 19.3633 24.3478 19.2311 24.4082 19.0855C24.4686 18.9399 24.4996 18.7839 24.4996 18.6263C24.4996 18.4687 24.4686 18.3126 24.4082 18.167C24.3478 18.0215 24.2593 17.8892 24.1478 17.7779L19.3478 12.9767ZM19.1954 21.031C17.6979 21.0058 12.5739 20.6038 8.54795 16.5767C4.50879 12.5375 4.11759 7.39557 4.0936 5.92799L6.49957 3.52201L9.60274 6.62518L8.05116 8.17677C7.91011 8.3177 7.80641 8.49157 7.74942 8.68264C7.69243 8.87372 7.68396 9.07598 7.72476 9.27115C7.75356 9.40915 8.45795 12.6815 10.4499 14.6735C12.4419 16.6655 15.7143 17.3699 15.8523 17.3987C16.0473 17.4406 16.2498 17.4328 16.441 17.376C16.6323 17.3192 16.8062 17.2151 16.9467 17.0735L18.4995 15.5219L21.6026 18.6251L19.1954 21.031V21.031Z" fill="#3AEE57"/>
</g>
<defs>
<clipPath id="clip0_964_17684">
<rect width="24" height="24" fill="white" transform="translate(0.5 0.625)"/>
</clipPath>
</defs>
</svg>
