<svg viewBox="0 0 25 27" fill="none" xmlns="http://www.w3.org/2000/svg">
<g clip-path="url(#clip0_1374_1201)">
<path d="M24.21 2.2166C24.075 2.0769 23.9045 1.98018 23.7185 1.93781C23.5325 1.89543 23.3388 1.90917 23.16 1.9774L1.16 10.2974C0.970269 10.3722 0.806921 10.5054 0.691652 10.679C0.576383 10.8527 0.514648 11.0588 0.514648 11.2698C0.514648 11.4808 0.576383 11.6869 0.691652 11.8606C0.806921 12.0343 0.970269 12.1674 1.16 12.2422L10.76 16.2358L14.6 26.2198C14.6721 26.4085 14.7958 26.571 14.9557 26.6874C15.1157 26.8039 15.3049 26.8691 15.5 26.875C15.7021 26.8707 15.8982 26.8028 16.0624 26.6803C16.2266 26.5577 16.3513 26.3863 16.42 26.1886L24.42 3.3086C24.4881 3.1246 24.5046 2.92425 24.4674 2.73091C24.4302 2.53756 24.3409 2.3592 24.21 2.2166V2.2166ZM15.5 22.923L12.71 15.643L17.5 10.6614L16.09 9.195L11.26 14.2182L4.3 11.275L21.83 4.6918L15.5 22.923Z" fill="#3AEE57"/>
</g>
<defs>
<clipPath id="clip0_1374_1201">
<rect width="24" height="26" fill="white" transform="translate(0.5 0.875)"/>
</clipPath>
</defs>
</svg>
