<svg width="140" height="140" viewBox="0 0 140 140" fill="none" xmlns="http://www.w3.org/2000/svg">
<g clip-path="url(#clip0_1369_1015)">
<path d="M36.3996 -0.262451C17.7293 -0.262451 2.53711 14.9297 2.53711 33.6C2.53711 52.2704 17.7293 67.4625 36.3996 67.4625C43.5309 67.4625 50.1809 65.1985 55.6496 61.425L78.4871 89.1625C78.4324 89.3594 78.4105 89.5672 78.3996 89.775V120.838C75.7855 121.33 70.3168 122.445 63.6121 124.425C59.3137 125.694 54.9934 127.203 51.5371 129.063C49.809 129.992 48.2996 131.042 47.0746 132.3C45.8496 133.558 44.7996 135.22 44.7996 137.2C44.7996 138.742 46.0574 140 47.5996 140H114.8C116.342 140 117.6 138.742 117.6 137.2C117.6 135.22 116.55 133.558 115.325 132.3C114.1 131.042 112.59 129.992 110.862 129.063C107.406 127.203 103.086 125.694 98.7871 124.425C92.0824 122.445 86.6137 121.33 83.9996 120.838V89.775C83.9887 89.6 83.9559 89.425 83.9121 89.25L128.187 35.35C128.865 34.5079 128.996 33.3594 128.526 32.386C128.056 31.4125 127.071 30.8 126 30.8H70.1746C68.7418 13.4204 54.1293 -0.262451 36.3996 -0.262451ZM36.3996 5.86255C50.7934 5.86255 62.5402 16.8 63.9621 30.8H51.7121C52.8605 29.8375 53.3855 28.7547 52.6746 27.3875C50.2465 22.7172 41.6824 29.3891 38.6746 31.9375L38.5871 31.85C38.3246 31.5219 37.9965 31.2485 37.6246 31.0625C38.3027 26.8625 39.5934 16.3516 34.5621 16.8875C29.4652 17.4344 32.9652 27.661 34.4746 31.5C34.1684 31.7954 33.9277 32.1563 33.7746 32.55C30.5262 30.811 20.3215 25.7797 18.9871 30.975C17.4996 36.7719 32.473 35.5032 34.2121 35.35L34.4746 35.7C33.4355 36.6844 22.9137 46.8344 27.5621 50.05C31.7949 52.9704 35.3168 41.1469 36.2246 37.8L51.7996 56.7C47.3918 59.6532 42.1199 61.3375 36.3996 61.3375C21.0543 61.3375 8.66211 48.9454 8.66211 33.6C8.66211 18.2547 21.0543 5.86255 36.3996 5.86255ZM42.3496 36.4H120.05L113.137 44.8H49.2621L42.3496 36.4ZM53.8996 50.4H108.5L81.1996 83.65L53.8996 50.4ZM81.1996 126.088C81.6152 126.164 89.2277 127.498 97.2121 129.85C101.314 131.053 105.393 132.519 108.237 134.05C108.467 134.181 108.543 134.269 108.762 134.4H53.6371C53.8559 134.269 53.9324 134.181 54.1621 134.05C57.0059 132.519 61.0855 131.053 65.1871 129.85C73.1715 127.498 80.784 126.164 81.1996 126.088Z" fill="#1FB437"/>
</g>
<defs>
<clipPath id="clip0_1369_1015">
<rect width="140" height="140" fill="white"/>
</clipPath>
</defs>
</svg>
