<svg width="150" height="150" viewBox="0 0 150 150" fill="none" xmlns="http://www.w3.org/2000/svg">
<path d="M46.2832 9C42.1882 9 38.5784 11.7972 37.5645 15.7676L36.2227 21H36C33.4007 21 31.0299 21.8798 29.291 23.3672C27.5521 24.8546 26.4462 26.8141 25.6992 28.875C24.2053 32.9968 24 37.7335 24 42C24.0001 42.7956 24.3162 43.5586 24.8788 44.1212C25.4414 44.6838 26.2044 44.9999 27 45H30.3574L41.9121 135.053C41.9157 135.078 41.9196 135.104 41.9238 135.129C42.4816 138.713 45.6133 141 49.1016 141H100.893C104.383 141 107.514 138.707 108.07 135.129C108.075 135.104 108.078 135.078 108.082 135.053L119.643 45H123C123.796 44.9999 124.559 44.6838 125.121 44.1212C125.684 43.5586 126 42.7956 126 42C126 37.7335 125.795 32.9968 124.301 28.875C123.554 26.8141 122.448 24.8546 120.709 23.3672C118.97 21.8798 116.599 21 114 21H113.719L112.424 15.8203V15.8145C111.424 11.8248 107.803 9 103.688 9H46.2832ZM46.2832 15H103.688C105.08 15 106.261 15.9231 106.6 17.2734L107.531 21H42.416L43.377 17.2559C43.719 15.9163 44.9002 15 46.2832 15ZM38.7363 26.9883C38.824 26.9961 38.912 27 39 27H111C111.064 27.0001 111.129 26.9982 111.193 26.9941C111.254 26.9979 111.314 26.9999 111.375 27H114C115.377 27 116.118 27.332 116.812 27.9258C117.507 28.5196 118.155 29.5158 118.664 30.9199C119.406 32.9678 119.49 36.0664 119.637 39H33.498C33.2892 38.964 33.077 38.9503 32.8652 38.959C32.7454 38.9655 32.626 38.9792 32.5078 39H30.3633C30.5099 36.0664 30.5937 32.9678 31.3359 30.9199C31.8449 29.5158 32.4933 28.5196 33.1875 27.9258C33.8817 27.332 34.6228 27 36 27H38.5488C38.6114 26.9981 38.674 26.9941 38.7363 26.9883ZM36.4102 45H113.59L110.127 72H95.9531C91.9787 63.2559 84.2865 57.036 74.9766 57.0117C74.8379 57.0069 74.7085 57.0144 74.5723 57.0234C65.3586 57.1794 57.8343 63.3691 53.9648 72H39.873L36.4102 45ZM74.8359 62.9941C74.899 62.9974 74.8434 63 74.9238 63C82.1785 63 88.4231 68.0477 91.3535 76.0312C91.5646 76.6077 91.9474 77.1056 92.4503 77.4576C92.9533 77.8097 93.5521 77.999 94.166 78H94.4707H109.354L107.432 93H94.582H94.166C93.5487 92.9995 92.9463 93.1894 92.4408 93.5438C91.9354 93.8982 91.5516 94.3999 91.3418 94.9805C90.6824 96.8105 89.9302 98.4865 89.0156 99.8906C85.6155 105.103 80.6542 107.928 75.2637 107.994H75.0645C69.738 107.994 64.7769 105.289 61.2949 100.195V100.189C60.2756 98.701 59.4369 96.9197 58.7227 94.9688C58.5112 94.3913 58.1275 93.8928 57.6234 93.5407C57.1193 93.1885 56.5192 92.9998 55.9043 93H55.5645H42.5684L40.6465 78H55.4531H55.7695C56.3858 77.9993 56.987 77.8089 57.4912 77.4545C57.9955 77.1002 58.3784 76.5991 58.5879 76.0195C61.433 68.1251 67.5356 63.0805 74.7539 63C74.7813 62.9984 74.8086 62.9965 74.8359 62.9941ZM74.8184 69C71.1152 69.0404 67.9955 71.3338 66.0059 74.3848C64.0163 77.4357 62.9359 81.3599 62.9824 85.6289C63.029 89.8979 64.1963 93.8018 66.252 96.8086C68.3076 99.8154 71.4785 102.04 75.1816 102C78.8848 101.96 82.0045 99.6662 83.9941 96.6152C85.9837 93.5643 87.0641 89.6401 87.0176 85.3711C86.971 81.1021 85.8037 77.1983 83.748 74.1914C81.6924 71.1846 78.5215 68.9596 74.8184 69ZM74.8828 75C76.1582 74.9862 77.5308 75.7348 78.791 77.5781C80.0512 79.4214 80.9828 82.2492 81.0176 85.4355C81.0523 88.6219 80.1865 91.4695 78.9668 93.3398C77.7471 95.2102 76.3926 95.9861 75.1172 96C73.8418 96.0138 72.4692 95.2652 71.209 93.4219C69.9488 91.5786 69.0172 88.7508 68.9824 85.5645C68.9477 82.3781 69.8135 79.5305 71.0332 77.6602C72.2529 75.7898 73.6074 75.0139 74.8828 75ZM43.3359 99H54.0645C54.7373 100.56 55.3626 102.143 56.3438 103.576C60.7938 110.086 67.6589 113.994 75.0645 113.994H75.2754C75.2852 113.994 75.2949 113.994 75.3047 113.994C82.8046 113.914 89.6844 109.844 94.0371 103.172H94.043C94.9068 101.846 95.4438 100.413 96.041 99H106.664L102.146 134.209C102.127 134.333 101.483 135 100.893 135H49.1016C48.5218 135 47.8718 134.327 47.8535 134.209L43.3359 99Z" fill="#1FB437"/>
</svg>
