<svg width="75" height="75" viewBox="0 0 75 75" fill="none" xmlns="http://www.w3.org/2000/svg">
<path d="M37.5 50H40.625C42.7084 50 46.875 48.75 46.875 43.75C46.875 38.75 42.7084 37.5 40.625 37.5H34.375C32.2916 37.5 28.125 36.25 28.125 31.25C28.125 26.25 32.2916 25 34.375 25H37.5M37.5 50H28.125M37.5 50V56.25M37.5 25H46.875M37.5 25V18.75M65.625 37.5C65.625 53.0331 53.0331 65.625 37.5 65.625C21.967 65.625 9.375 53.0331 9.375 37.5C9.375 21.967 21.967 9.375 37.5 9.375C53.0331 9.375 65.625 21.967 65.625 37.5Z" stroke="#1FB437" stroke-width="3" stroke-linecap="round" stroke-linejoin="round"/>
</svg>
