<svg viewBox="0 0 48 48" fill="none" xmlns="http://www.w3.org/2000/svg">
<path fill-rule="evenodd" clip-rule="evenodd" d="M37.812 7.84388C35.7842 5.77292 32.8922 5.00904 30.0612 5.8146C29.2644 6.04132 28.4346 5.57918 28.208 4.78238C27.9812 3.98558 28.4434 3.15584 29.2402 2.92912C33.1166 1.82615 37.1494 2.87918 39.9556 5.745C40.5352 6.33692 40.5252 7.28662 39.9332 7.8662C39.3412 8.4458 38.3916 8.4358 37.812 7.84388ZM22.3808 6.61678C21.9526 5.88262 20.705 5.4374 19.4376 6.1617C18.1749 6.88336 17.9528 8.15544 18.3735 8.8768L23.4248 17.539C23.8422 18.2547 23.6002 19.1731 22.8846 19.5904C22.169 20.0078 21.2506 19.7659 20.8332 19.0503L15.782 10.3881C15.7817 10.3876 15.7822 10.3885 15.782 10.3881L14.0982 7.50064C13.6701 6.76648 12.4224 6.32126 11.1551 7.04556C9.89238 7.76722 9.6703 9.0393 10.091 9.76066L17.6679 22.754C18.0853 23.4696 17.8434 24.3882 17.1278 24.8054C16.4121 25.2228 15.4937 24.981 15.0764 24.2652L11.7088 18.4904C11.2807 17.7563 10.0331 17.3111 8.76576 18.0354C7.50304 18.757 7.28096 20.029 7.70162 20.7504L15.2786 33.7438C18.4965 39.262 26.4372 41.0528 33.1712 37.2042C39.9004 33.3584 42.2926 25.6754 39.0822 20.17L34.0308 11.5077C33.6026 10.7736 32.355 10.3284 31.0878 11.0527C29.825 11.7743 29.603 13.0464 30.0236 13.7678L33.3912 19.5426C33.5926 19.8882 33.6478 20.3 33.5442 20.6864C33.4406 21.073 33.187 21.402 32.8396 21.6006C29.7548 23.3636 28.8094 26.7726 30.1598 29.0886C30.5772 29.8044 30.3354 30.7228 29.6198 31.14C28.9042 31.5574 27.9856 31.3156 27.5684 30.6C25.4498 26.967 26.7834 22.4736 30.095 19.8457L22.3808 6.61678ZM27.8372 10.0183L24.9722 5.10554C23.5406 2.65034 20.326 2.19856 17.9491 3.55706C17.2165 3.97574 16.5934 4.54966 16.1236 5.2155C14.5235 3.45374 11.7678 3.24002 9.66652 4.44092C7.28482 5.80208 6.06024 8.80394 7.49942 11.2719L9.50376 14.709C8.73368 14.7927 7.96986 15.0348 7.27718 15.4307C4.89548 16.7919 3.6709 19.7937 5.11008 22.2618L12.687 35.255C16.9085 42.4942 26.816 44.2916 34.6598 39.8088C42.508 35.3234 45.9026 25.9108 41.6736 18.6587L36.6224 9.9965C35.1906 7.5413 31.9762 7.08952 29.5992 8.44802C28.899 8.84812 28.299 9.38996 27.8372 10.0183ZM8.82802 35.718C9.54366 35.3008 10.4621 35.5426 10.8794 36.2582C12.5331 39.0942 15.0613 41.2386 18.1791 42.6302C18.9356 42.9678 19.2751 43.8548 18.9375 44.6114C18.5999 45.3678 17.7129 45.7074 16.9564 45.3698C13.3334 43.7528 10.2938 41.2092 8.28786 37.7694C7.87054 37.0538 8.11238 36.1354 8.82802 35.718Z" fill="#1FB437"/>
</svg>
