<svg viewBox="0 0 48 48" fill="none" xmlns="http://www.w3.org/2000/svg">
<path d="M5.38936 4.47559L39.9297 39.0159C40.5851 39.6713 40.9532 40.5603 40.9532 41.4871C40.9532 42.414 40.5851 43.303 39.9297 43.9584C39.2741 44.6136 38.3852 44.9816 37.4584 44.9816C36.5316 44.9816 35.6427 44.6136 34.9872 43.9584L26.5497 35.3756C25.9975 34.8149 25.6877 34.0597 25.6872 33.2728V32.7543C25.6872 32.357 25.6084 31.9636 25.4552 31.597C25.302 31.2304 25.0775 30.8978 24.7947 30.6187L23.7053 29.6128C23.3355 29.2715 22.8858 29.0288 22.3976 28.9069C21.9094 28.785 21.3983 28.7879 20.9115 28.9153C20.1439 29.1156 19.3372 29.1118 18.5715 28.904C17.8058 28.6963 17.1077 28.292 16.5465 27.7312L8.53748 19.7212C3.78623 14.97 2.0378 7.79527 5.38936 4.47559Z" stroke="#1FB437" stroke-width="3" stroke-linejoin="round"/>
<path d="M37.5 3L30.2578 10.2422C29.7005 10.7994 29.2584 11.4609 28.9568 12.1889C28.6552 12.9169 28.5 13.6973 28.5 14.4853V15.8784C28.5 16.0755 28.4612 16.2707 28.3858 16.4528C28.3103 16.6349 28.1997 16.8004 28.0603 16.9397L27 18" stroke="#1FB437" stroke-width="3" stroke-linecap="round" stroke-linejoin="round"/>
<path d="M30 21L31.0603 19.9397C31.1996 19.8003 31.3651 19.6897 31.5472 19.6142C31.7293 19.5388 31.9245 19.5 32.1216 19.5H33.5147C34.3027 19.5 35.0831 19.3448 35.8111 19.0432C36.5391 18.7416 37.2006 18.2995 37.7578 17.7422L45 10.5" stroke="#1FB437" stroke-width="3" stroke-linecap="round" stroke-linejoin="round"/>
<path d="M41.25 6.75L33.75 14.25" stroke="#1FB437" stroke-width="3" stroke-linecap="round" stroke-linejoin="round"/>
<path d="M18.7502 34.5L9.40142 43.9012C8.6982 44.6043 7.74454 44.9992 6.75018 44.9992C5.75581 44.9992 4.80215 44.6043 4.09893 43.9012C3.39591 43.198 3.00098 42.2444 3.00098 41.25C3.00098 40.2556 3.39591 39.302 4.09893 38.5988L12.0002 30.75" stroke="#1FB437" stroke-width="3" stroke-linecap="round" stroke-linejoin="round"/>
</svg>
