<svg width="150" height="150" viewBox="0 0 150 150" fill="none" xmlns="http://www.w3.org/2000/svg">
<path d="M118.75 112.5H31.25M75 112.5V75M93.75 112.5V87.5M56.25 112.5V87.5M118.75 137.5V70.8081C126.032 68.2341 131.25 61.2889 131.25 53.125C131.25 42.7697 122.855 34.375 112.5 34.375C110.121 34.375 107.845 34.8182 105.75 35.6266C103.435 24.2146 90.3751 12.5 75 12.5C59.6249 12.5 46.5655 24.2146 44.2498 35.6266C42.1554 34.8182 39.8795 34.375 37.5 34.375C27.1447 34.375 18.75 42.7697 18.75 53.125C18.75 61.2889 23.9675 68.2341 31.25 70.8081V137.5H118.75Z" stroke="#1FB437" stroke-width="6"/>
</svg>
