<svg width="60" height="60" viewBox="0 0 65 65" fill="none" xmlns="http://www.w3.org/2000/svg">
<path d="M56.25 5.61377H3.75C1.68938 5.61377 0 7.30127 0 9.36377V41.25C0 43.3106 1.6875 44.9981 3.75 44.9981H28.125V50.6344H18.75C17.715 50.6344 16.875 51.4744 16.875 52.5094C16.875 53.5444 17.715 54.3844 18.75 54.3844H41.25C42.285 54.3844 43.125 53.5444 43.125 52.5094C43.125 51.4744 42.285 50.6344 41.25 50.6344H31.875V44.9981H56.25C58.3106 44.9981 60 43.3106 60 41.25V9.36377C60 7.30127 58.3106 5.61377 56.25 5.61377ZM56.25 41.25H3.75V9.36377H56.25V41.25Z" fill="#1FB437"/>
</svg>
