<svg viewBox="0 0 48 48" fill="none" xmlns="http://www.w3.org/2000/svg">
<path d="M33.0076 0H14.9941C12.5086 0 10.4941 2.0145 10.4941 4.5V43.5C10.4941 45.9855 12.5086 48 14.9941 48H33.0076C35.4931 48 37.5076 45.9855 37.5076 43.5V4.5C37.5076 2.0145 35.4931 0 33.0076 0ZM34.5076 43.5C34.5076 44.328 33.8356 45 33.0076 45H14.9941C14.1661 45 13.4941 44.328 13.4941 43.5V4.5C13.4941 3.672 14.1661 3 14.9941 3H33.0076C33.8356 3 34.5076 3.672 34.5076 4.5V43.5ZM24.0031 37.509C22.3501 37.509 21.0106 38.8485 21.0106 40.5C21.0106 42.1515 22.3501 43.4925 24.0031 43.4925C25.6561 43.4925 26.9956 42.1515 26.9956 40.5C26.9956 38.8485 25.6576 37.509 24.0031 37.509ZM27.0031 4.5H21.0031C20.1751 4.5 19.5031 5.172 19.5031 6C19.5031 6.828 20.1751 7.5 21.0031 7.5H27.0031C27.8311 7.5 28.5031 6.828 28.5031 6C28.5031 5.172 27.8311 4.5 27.0031 4.5Z" fill="#1FB437"/>
</svg>
