<svg viewBox="8 10 70 70" fill="none" xmlns="http://www.w3.org/2000/svg">
<path fill-rule="evenodd" clip-rule="evenodd" d="M41.8156 71.25C40.4754 71.25 39.332 70.2551 39.1137 68.8987C38.9127 67.8015 38.1425 66.9049 37.1064 66.5625C36.2622 66.2651 35.4367 65.9145 34.6348 65.5125C33.6806 65.0119 32.5358 65.0869 31.6513 65.7075C30.5808 66.4969 29.1104 66.3746 28.1778 65.4187L24.5508 61.6987C23.5747 60.6975 23.4479 59.1191 24.251 57.9675C24.8704 57.0394 24.9596 55.8428 24.485 54.8288C24.1723 54.1245 23.8965 53.4034 23.6587 52.6688C23.3182 51.5111 22.3782 50.6441 21.22 50.4187C19.8233 50.19 18.7921 48.9596 18.7813 47.5087V42.855C18.7739 41.1829 19.9514 39.7526 21.56 39.48C22.7804 39.2419 23.7993 38.3846 24.2657 37.2037C24.4046 36.8712 24.5508 36.5412 24.7044 36.2137C25.3246 34.9891 25.2389 33.5142 24.4814 32.3738C23.534 31.0233 23.6795 29.1678 24.825 27.99L27.4905 25.2563C28.8051 23.9075 30.8784 23.7329 32.3898 24.8438L32.4739 24.9037C33.6026 25.6828 35.0387 25.824 36.291 25.2788C37.6308 24.7842 38.6184 23.6034 38.8906 22.17L38.9274 22.0425C39.2281 20.1449 40.826 18.7508 42.7006 18.75H45.9181C47.843 18.7491 49.4859 20.1771 49.8009 22.125L49.8594 22.3875C50.1177 23.7606 51.0541 24.8971 52.331 25.3875C53.5617 25.9293 54.977 25.7878 56.0825 25.0125L56.2651 24.8775C57.8157 23.7313 59.948 23.9076 61.2999 25.2938L63.7531 27.8137C64.9827 29.0818 65.1372 31.076 64.1187 32.5275C63.3207 33.7407 63.2191 35.2997 63.8517 36.6112L64.0092 36.9862C64.5215 38.2669 65.6304 39.195 66.956 39.4537C68.6889 39.7436 69.9631 41.2759 69.9687 43.0763V47.25C69.9684 48.8378 68.8486 50.1923 67.3216 50.4525C66.0657 50.6996 65.0427 51.6323 64.6561 52.8825C64.4855 53.3824 64.2954 53.8826 64.0857 54.3825C63.5979 55.4812 63.7062 56.7615 64.3711 57.7575C65.2482 59.0093 65.1121 60.7286 64.0494 61.8188L60.6455 65.3137C59.672 66.312 58.1367 66.4406 57.0185 65.6175C56.0847 64.9631 54.8754 64.8911 53.8741 65.43C53.1605 65.7926 52.4281 66.1144 51.6804 66.3937C50.6345 66.7639 49.8635 67.6819 49.6621 68.7975C49.4487 70.2011 48.2754 71.2395 46.8905 71.25H41.8156Z" stroke="#1FB437" stroke-width="3" stroke-linecap="round" stroke-linejoin="round"/>
<path fill-rule="evenodd" clip-rule="evenodd" d="M52.9049 44.9998C52.9049 49.8316 49.0859 53.7485 44.3747 53.7485C39.6636 53.7485 35.8447 49.8316 35.8447 44.9998C35.8447 40.1679 39.6636 36.251 44.3747 36.251C49.0859 36.251 52.9049 40.1679 52.9049 44.9998Z" stroke="#1FB437" stroke-width="3" stroke-linecap="round" stroke-linejoin="round"/>
</svg>
